<svg xmlns="http://www.w3.org/2000/svg">
  <symbol id="cancel-icon" width="16" height="16" viewBox="0 0 16 16">
    <path
      d="M2 0a2 2 0 0 0-2 2v12a2 2 0 0 0 2 2h12a2 2 0 0 0 2-2V2a2 2 0 0 0-2-2H2zm3.354 4.646L8 7.293l2.646-2.647a.5.5 0 0 1 .708.708L8.707 8l2.647 2.646a.5.5 0 0 1-.708.708L8 8.707l-2.646 2.647a.5.5 0 0 1-.708-.708L7.293 8 4.646 5.354a.5.5 0 1 1 .708-.708z"
    />
  </symbol>

  <symbol id="save-icon" width="16" height="16" viewBox="0 0 16 16">
    <path
      d="M8.5 1.5A1.5 1.5 0 0 1 10 0h4a2 2 0 0 1 2 2v12a2 2 0 0 1-2 2H2a2 2 0 0 1-2-2V2a2 2 0 0 1 2-2h6c-.314.418-.5.937-.5 1.5v6h-2a.5.5 0 0 0-.354.854l2.5 2.5a.5.5 0 0 0 .708 0l2.5-2.5A.5.5 0 0 0 10.5 7.5h-2v-6z"
    />
  </symbol>

  <symbol id="expand-icon" width="16" height="16" viewBox="0 0 16 16">
    <path
      d="m12.14 8.753-5.482 4.796c-.646.566-1.658.106-1.658-.753V3.204a1 1 0 0 1 1.659-.753l5.48 4.796a1 1 0 0 1 0 1.506z"
    />
  </symbol>

  <symbol id="task-icon" width="16" height="16" viewBox="0 0 16 16">
    <path
      fill-rule="evenodd"
      d="M2 2.5a.5.5 0 0 0-.5.5v1a.5.5 0 0 0 .5.5h1a.5.5 0 0 0 .5-.5V3a.5.5 0 0 0-.5-.5H2zM3 3H2v1h1V3z"
    />
    <path
      d="M5 3.5a.5.5 0 0 1 .5-.5h9a.5.5 0 0 1 0 1h-9a.5.5 0 0 1-.5-.5zM5.5 7a.5.5 0 0 0 0 1h9a.5.5 0 0 0 0-1h-9zm0 4a.5.5 0 0 0 0 1h9a.5.5 0 0 0 0-1h-9z"
    />
    <path
      fill-rule="evenodd"
      d="M1.5 7a.5.5 0 0 1 .5-.5h1a.5.5 0 0 1 .5.5v1a.5.5 0 0 1-.5.5H2a.5.5 0 0 1-.5-.5V7zM2 7h1v1H2V7zm0 3.5a.5.5 0 0 0-.5.5v1a.5.5 0 0 0 .5.5h1a.5.5 0 0 0 .5-.5v-1a.5.5 0 0 0-.5-.5H2zm1 .5H2v1h1v-1z"
    />
  </symbol>

  <symbol id="step-icon" width="16" height="16" viewBox="0 0 16 16">
    <path
      d="M0 4.5A1.5 1.5 0 0 1 1.5 3h13A1.5 1.5 0 0 1 16 4.5V6a.5.5 0 0 1-.5.5 1.5 1.5 0 0 0 0 3 .5.5 0 0 1 .5.5v1.5a1.5 1.5 0 0 1-1.5 1.5h-13A1.5 1.5 0 0 1 0 11.5V10a.5.5 0 0 1 .5-.5 1.5 1.5 0 1 0 0-3A.5.5 0 0 1 0 6V4.5ZM1.5 4a.5.5 0 0 0-.5.5v1.05a2.5 2.5 0 0 1 0 4.9v1.05a.5.5 0 0 0 .5.5h13a.5.5 0 0 0 .5-.5v-1.05a2.5 2.5 0 0 1 0-4.9V4.5a.5.5 0 0 0-.5-.5h-13Z"
    />
  </symbol>

  <symbol id="add-icon" width="16" height="16" viewBox="0 0 16 16">
    <path
      fill-rule="evenodd"
      d="M8 2a.5.5 0 0 1 .5.5v5h5a.5.5 0 0 1 0 1h-5v5a.5.5 0 0 1-1 0v-5h-5a.5.5 0 0 1 0-1h5v-5A.5.5 0 0 1 8 2Z"
    />
  </symbol>
</svg>
